<?xml version="1.0" standalone="no"?>
<!DOCTYPE svg PUBLIC "-//W3C//DTD SVG 20010904//EN"
 "http://www.w3.org/TR/2001/REC-SVG-20010904/DTD/svg10.dtd">
<svg version="1.0" xmlns="http://www.w3.org/2000/svg"
 width="569.000000pt" height="88.000000pt" viewBox="0 0 569.000000 88.000000"
 preserveAspectRatio="xMidYMid meet">

<g transform="translate(0.000000,88.000000) scale(0.100000,-0.100000)"
fill="#000000" stroke="none">
<path d="M235 813 c-9 -38 -28 -106 -40 -153 -13 -47 -55 -206 -95 -355 -39
-148 -74 -278 -76 -287 -5 -17 6 -18 135 -18 l140 0 11 43 c6 23 22 80 34 127
13 47 36 132 51 190 15 58 49 184 75 280 26 96 51 190 55 208 l7 32 -140 0
-139 0 -18 -67z"/>
<path d="M947 823 c-9 -32 -25 -92 -36 -133 -11 -41 -56 -211 -100 -376 -45
-166 -81 -305 -81 -308 0 -3 62 -6 138 -6 l138 0 28 108 c16 59 55 204 86 322
32 118 70 260 85 315 14 55 28 108 31 118 5 16 -6 17 -134 17 l-139 0 -16 -57z"/>
<path d="M4169 851 c-20 -16 -22 -23 -14 -47 18 -50 95 -42 95 10 0 47 -44 67
-81 37z"/>
<path d="M1608 794 c-5 -4 -8 -162 -8 -351 l0 -343 45 0 44 0 3 128 3 127 135
5 c149 6 211 25 248 78 59 84 53 221 -11 291 -47 51 -98 64 -282 69 -93 2
-173 1 -177 -4z m369 -100 c42 -31 65 -81 60 -131 -10 -100 -68 -132 -234
-133 l-113 0 0 146 0 146 129 -3 c112 -4 133 -7 158 -25z"/>
<path d="M3475 783 c19 -48 229 -603 242 -641 l15 -43 46 3 47 3 122 325 c68
179 126 335 129 348 6 20 3 22 -33 22 l-40 0 -57 -152 c-32 -84 -81 -214 -108
-288 -28 -74 -54 -138 -58 -143 -3 -4 -40 82 -80 190 -41 109 -90 241 -110
293 l-36 95 -43 3 c-39 3 -43 1 -36 -15z"/>
<path d="M2263 629 c-52 -10 -52 -11 -46 -42 3 -18 7 -33 8 -35 1 -1 22 2 46
7 57 13 124 14 170 1 48 -13 71 -49 67 -103 l-3 -42 -110 -5 c-176 -8 -230
-50 -222 -173 3 -48 8 -62 36 -91 18 -18 49 -38 70 -45 48 -14 190 -13 256 3
l50 11 3 194 c2 180 1 197 -19 238 -29 59 -78 84 -178 89 -42 1 -99 -2 -128
-7z m247 -369 l0 -89 -32 -5 c-125 -19 -165 -15 -203 20 -18 16 -25 33 -25 59
0 80 38 104 168 105 l92 0 0 -90z"/>
<path d="M2805 633 c-11 -2 -37 -9 -57 -14 l-38 -10 0 -254 0 -255 40 0 40 0
0 224 c0 260 -9 241 116 238 l72 -2 4 31 c4 25 1 32 -19 40 -25 9 -121 10
-158 2z"/>
<path d="M3125 629 c-51 -10 -51 -10 -47 -45 4 -33 7 -35 31 -30 111 25 200
18 237 -19 19 -19 24 -35 24 -74 l0 -49 -112 -4 c-137 -4 -178 -20 -210 -81
-25 -49 -21 -125 9 -165 36 -51 96 -72 198 -71 49 0 113 6 140 13 l50 11 3
195 c2 186 1 197 -20 239 -31 61 -78 84 -177 87 -42 2 -99 -2 -126 -7z m245
-369 l0 -89 -32 -5 c-92 -14 -117 -15 -151 -5 -49 13 -77 45 -77 87 0 77 39
101 168 102 l92 0 0 -90z"/>
<path d="M4500 628 c-50 -14 -97 -53 -123 -101 -19 -37 -22 -57 -22 -162 0
-103 3 -126 21 -160 43 -79 111 -114 223 -115 91 0 195 26 187 47 -4 8 -6 25
-6 38 0 24 0 24 -42 8 -24 -8 -78 -16 -123 -17 -119 -2 -170 33 -182 124 l-6
40 186 0 186 0 6 43 c7 46 -7 122 -30 168 -41 78 -166 118 -275 87z m157 -75
c39 -18 72 -77 73 -125 l0 -28 -150 0 -150 0 0 33 c0 107 121 171 227 120z"/>
<path d="M4160 365 l0 -265 40 0 40 0 0 265 0 265 -40 0 -40 0 0 -265z"/>
<path d="M4840 622 c0 -5 11 -40 24 -78 44 -127 144 -409 151 -426 5 -13 18
-18 49 -18 40 0 43 2 55 38 14 40 41 117 92 257 18 50 35 94 39 98 4 4 39 -81
77 -190 l71 -198 43 -3 44 -3 18 53 c11 29 52 147 93 261 41 115 74 211 74
213 0 2 -17 4 -39 4 -43 0 -34 16 -106 -190 -76 -218 -83 -235 -89 -220 -19
50 -129 369 -133 388 -5 19 -12 22 -48 22 l-43 0 -58 -167 c-79 -231 -91 -261
-98 -243 -3 8 -36 104 -73 212 l-68 198 -37 0 c-21 0 -38 -4 -38 -8z"/>
</g>
</svg>
